<?xml version="1.0" encoding="UTF-8"?>
<svg xmlns="http://www.w3.org/2000/svg" viewBox="0 0 1000 800">
  <defs>
    <marker id="ar" markerWidth="6" markerHeight="6" refX="6" refY="3" orient="auto">
      <polygon points="0 0, 6 3, 0 6" fill="#555"/>
    </marker>
  </defs>
  <title>Omni Architecture and Six-Stage Training</title>
  
  <text x="500" y="26" text-anchor="middle" font-size="20" font-weight="bold" fill="#212121">Omni: Architecture and Six-Stage Training</text>
  <text x="500" y="46" text-anchor="middle" font-size="12" fill="#616161">Single LLM (8B/2B) + SigLIP + Whisper + CosyVoice2</text>
  
  <!-- ========== Architecture (y 52 to 450): main flow + breakthrough diagrams in lower third ========== -->
  <rect x="20" y="52" width="960" height="398" rx="8" fill="#FAFAFA" stroke="#E0E0E0"/>
  
  <!-- Main flow aligned to center axis y=220; x centered around 500 -->
  <rect x="36" y="98" width="148" height="148" rx="8" fill="#E3F2FD" stroke="#1976D2"/>
  <text x="110" y="132" text-anchor="middle" font-size="16" font-weight="bold" fill="#1565C0">Input</text>
  <text x="110" y="160" text-anchor="middle" font-size="14" fill="#333">Image / Video</text>
  <text x="110" y="186" text-anchor="middle" font-size="14" fill="#333">Audio</text>
  <text x="110" y="212" text-anchor="middle" font-size="14" fill="#333">Text</text>
  
  <path d="M 184 131 L 224 131" stroke="#555" stroke-width="2" marker-end="url(#ar)"/>
  <path d="M 184 245 L 224 245" stroke="#555" stroke-width="2" marker-end="url(#ar)"/>
  
  <rect x="229" y="82" width="172" height="98" rx="8" fill="#F3E5F5" stroke="#7B1FA2"/>
  <text x="315" y="110" text-anchor="middle" font-size="14" font-weight="bold" fill="#4A148C">Vision Encoder</text>
  <text x="315" y="132" text-anchor="middle" font-size="12" fill="#333">SigLIP-so400m-patch14-384</text>
  <text x="315" y="154" text-anchor="middle" font-size="11" fill="#555">729 to 182 tokens</text>
  
  <rect x="229" y="192" width="172" height="98" rx="8" fill="#F3E5F5" stroke="#7B1FA2"/>
  <text x="315" y="220" text-anchor="middle" font-size="14" font-weight="bold" fill="#4A148C">Audio Encoder</text>
  <text x="315" y="242" text-anchor="middle" font-size="12" fill="#333">Whisper-small (2B)</text>
  <text x="315" y="264" text-anchor="middle" font-size="11" fill="#555">128 mel, 30s</text>
  
  <path d="M 401 131 L 421 131" stroke="#555" stroke-width="2" marker-end="url(#ar)"/>
  <path d="M 401 245 L 421 245" stroke="#555" stroke-width="2" marker-end="url(#ar)"/>
  
  <rect x="426" y="82" width="182" height="98" rx="8" fill="#FFF3E0" stroke="#E65100"/>
  <text x="517" y="110" text-anchor="middle" font-size="14" font-weight="bold" fill="#BF360C">Visual Projector</text>
  <text x="517" y="132" text-anchor="middle" font-size="12" fill="#333">3D-Resampler / Q-Former</text>
  <text x="517" y="154" text-anchor="middle" font-size="11" fill="#555">16x to 96x compress</text>
  
  <rect x="426" y="192" width="182" height="98" rx="8" fill="#FFF3E0" stroke="#E65100"/>
  <text x="517" y="220" text-anchor="middle" font-size="14" font-weight="bold" fill="#BF360C">Audio Projector</text>
  <text x="517" y="242" text-anchor="middle" font-size="12" fill="#333">Conv-GMLP / MLP</text>
  <text x="517" y="264" text-anchor="middle" font-size="11" fill="#555">8x down-sample</text>
  
  <path d="M 608 131 L 613 131" stroke="#555" stroke-width="2" marker-end="url(#ar)"/>
  <path d="M 608 245 L 613 245" stroke="#555" stroke-width="2" marker-end="url(#ar)"/>
  
  <rect x="618" y="108" width="248" height="172" rx="10" fill="#E8F5E9" stroke="#2E7D32"/>
  <text x="742" y="148" text-anchor="middle" font-size="18" font-weight="bold" fill="#1B5E20">Qwen3-LLM</text>
  <text x="742" y="174" text-anchor="middle" font-size="13" fill="#333">8B / 2B (single LLM)</text>
  <text x="742" y="202" text-anchor="middle" font-size="12" fill="#555">Multimodal token sequence</text>
  <text x="742" y="226" text-anchor="middle" font-size="12" fill="#555">TMRoPE time alignment</text>
  <text x="742" y="250" text-anchor="middle" font-size="12" fill="#555">Optional: sparse attention</text>
  <text x="742" y="274" text-anchor="middle" font-size="12" fill="#555">(InfLLM-V2 + Lightning)</text>
  
  <path d="M 866 170 L 886 170" stroke="#555" stroke-width="2" marker-end="url(#ar)"/>
  <path d="M 866 254 L 886 254" stroke="#555" stroke-width="2" marker-end="url(#ar)"/>
  
  <rect x="891" y="132" width="78" height="76" rx="8" fill="#FFEBEE" stroke="#C62828"/>
  <text x="930" y="168" text-anchor="middle" font-size="14" font-weight="bold" fill="#B71C1C">Text</text>
  <text x="930" y="192" text-anchor="middle" font-size="11" fill="#555">NTP</text>
  
  <rect x="891" y="218" width="78" height="76" rx="8" fill="#FFEBEE" stroke="#C62828"/>
  <text x="930" y="254" text-anchor="middle" font-size="14" font-weight="bold" fill="#B71C1C">Speech</text>
  <text x="930" y="278" text-anchor="middle" font-size="11" fill="#555">CosyVoice2</text>
  
  <path d="M 110 246 L 110 328 L 742 328 L 742 280" stroke="#9E9E9E" stroke-width="1.5" stroke-dasharray="5,3" fill="none" marker-end="url(#ar)"/>
  <text x="416" y="348" text-anchor="middle" font-size="12" fill="#757575">text embed</text>
  
  <!-- Breakthrough diagrams: aligned to content, no overflow -->
  <rect x="26" y="358" width="430" height="82" rx="6" fill="#E8EAF6" stroke="#3F51B5"/>
  <text x="241" y="378" text-anchor="middle" font-size="11" font-weight="bold" fill="#1A237E">Sparse: Dense LLM → Hybrid (train path)</text>
  <rect x="41" y="388" width="82" height="42" rx="4" fill="#C5CAE9"/>
  <text x="82" y="408" text-anchor="middle" font-size="10" fill="#333">Dense pretrain</text>
  <path d="M 123 409 L 148 409" stroke="#555" stroke-width="1.5" marker-end="url(#ar)"/>
  <rect x="153" y="388" width="82" height="42" rx="4" fill="#C5CAE9"/>
  <text x="194" y="408" text-anchor="middle" font-size="10" fill="#333">Convert 1:3</text>
  <path d="M 235 409 L 260 409" stroke="#555" stroke-width="1.5" marker-end="url(#ar)"/>
  <rect x="265" y="388" width="82" height="42" rx="4" fill="#C5CAE9"/>
  <text x="306" y="408" text-anchor="middle" font-size="10" fill="#333">HALO distill</text>
  <path d="M 347 409 L 372 409" stroke="#555" stroke-width="1.5" marker-end="url(#ar)"/>
  <rect x="377" y="388" width="72" height="42" rx="4" fill="#C5CAE9"/>
  <text x="413" y="408" text-anchor="middle" font-size="10" fill="#333">Long FT</text>
  
  <rect x="466" y="358" width="460" height="82" rx="6" fill="#FFF8E1" stroke="#FF8F00"/>
  <text x="696" y="378" text-anchor="middle" font-size="11" font-weight="bold" fill="#E65100">Visual: key-position dense attn guides sparse (high-res)</text>
  <rect x="481" y="388" width="100" height="42" rx="4" fill="#FFECB3"/>
  <text x="531" y="408" text-anchor="middle" font-size="9" fill="#333">Dense (key pos)</text>
  <path d="M 581 409 L 604 409" stroke="#555" stroke-width="1.5" marker-end="url(#ar)"/>
  <rect x="609" y="388" width="72" height="42" rx="4" fill="#FFE082"/>
  <text x="645" y="402" text-anchor="middle" font-size="9" fill="#333">guide</text>
  <path d="M 681 409 L 704 409" stroke="#555" stroke-width="1.5" marker-end="url(#ar)"/>
  <rect x="709" y="388" width="100" height="42" rx="4" fill="#FFECB3"/>
  <text x="759" y="408" text-anchor="middle" font-size="9" fill="#333">Sparse/compress</text>
  
  <!-- ========== Table: larger fonts ========== -->
  <rect x="20" y="458" width="960" height="202" rx="8" fill="#FAFAFA" stroke="#E0E0E0"/>
  <text x="500" y="486" text-anchor="middle" font-size="15" font-weight="bold" fill="#212121">Six-Stage Training</text>
  
  <rect x="20" y="496" width="68" height="24" fill="#ECEFF1" stroke="#B0BEC5"/>
  <text x="54" y="513" text-anchor="middle" font-size="10" font-weight="bold" fill="#37474F">Stage</text>
  <rect x="88" y="496" width="108" height="24" fill="#ECEFF1" stroke="#B0BEC5"/>
  <text x="142" y="513" text-anchor="middle" font-size="10" font-weight="bold" fill="#37474F">Goal</text>
  <rect x="196" y="496" width="200" height="24" fill="#ECEFF1" stroke="#B0BEC5"/>
  <text x="296" y="513" text-anchor="middle" font-size="10" font-weight="bold" fill="#37474F">Data form</text>
  <rect x="396" y="496" width="95" height="24" fill="#ECEFF1" stroke="#B0BEC5"/>
  <text x="443" y="513" text-anchor="middle" font-size="10" font-weight="bold" fill="#37474F">Data scale</text>
  <rect x="491" y="496" width="489" height="24" fill="#ECEFF1" stroke="#B0BEC5"/>
  <text x="735" y="513" text-anchor="middle" font-size="10" font-weight="bold" fill="#37474F">Data source</text>
  
  <rect x="20" y="520" width="68" height="32" fill="#E3F2FD" stroke="#B0BEC5"/>
  <text x="54" y="539" text-anchor="middle" font-size="10" font-weight="bold">P1</text>
  <rect x="88" y="520" width="108" height="32" fill="#FFF" stroke="#B0BEC5"/>
  <text x="142" y="539" text-anchor="middle" font-size="9">Projector to LLM</text>
  <rect x="196" y="520" width="200" height="32" fill="#FFF" stroke="#B0BEC5"/>
  <text x="296" y="537" text-anchor="middle" font-size="9">Caption, ASR pairs</text>
  <rect x="396" y="520" width="95" height="32" fill="#FFF" stroke="#B0BEC5"/>
  <text x="443" y="539" text-anchor="middle" font-size="9">100M+50Kh</text>
  <rect x="491" y="520" width="489" height="32" fill="#FFF" stroke="#B0BEC5"/>
  <text x="735" y="537" text-anchor="middle" font-size="9">LAION, OmniCorpus, LibriSpeech, WenetSpeech, AISHELL</text>
  
  <rect x="20" y="552" width="68" height="32" fill="#F3E5F5" stroke="#B0BEC5"/>
  <text x="54" y="571" text-anchor="middle" font-size="10" font-weight="bold">P2</text>
  <rect x="88" y="552" width="108" height="32" fill="#FFF" stroke="#B0BEC5"/>
  <text x="142" y="571" text-anchor="middle" font-size="9">OCR + audio</text>
  <rect x="196" y="552" width="200" height="32" fill="#FFF" stroke="#B0BEC5"/>
  <text x="296" y="569" text-anchor="middle" font-size="9">Corrupt img to text, audio desc</text>
  <rect x="396" y="552" width="95" height="32" fill="#FFF" stroke="#B0BEC5"/>
  <text x="443" y="571" text-anchor="middle" font-size="9">500K+500K</text>
  <rect x="491" y="552" width="489" height="32" fill="#FFF" stroke="#B0BEC5"/>
  <text x="735" y="569" text-anchor="middle" font-size="9">DocVQA, ChartQA, AudioSet, dynamic corrupt</text>
  
  <rect x="20" y="584" width="68" height="26" fill="#E8F5E9" stroke="#B0BEC5"/>
  <text x="54" y="601" text-anchor="middle" font-size="10" font-weight="bold">P3</text>
  <rect x="88" y="584" width="108" height="26" fill="#FFF" stroke="#B0BEC5"/>
  <text x="142" y="601" text-anchor="middle" font-size="9">Full multimodal</text>
  <rect x="196" y="584" width="200" height="26" fill="#FFF" stroke="#B0BEC5"/>
  <text x="296" y="601" text-anchor="middle" font-size="9">Image/video/audio/text</text>
  <rect x="396" y="584" width="95" height="26" fill="#FFF" stroke="#B0BEC5"/>
  <text x="443" y="601" text-anchor="middle" font-size="9">~2T token</text>
  <rect x="491" y="584" width="489" height="26" fill="#FFF" stroke="#B0BEC5"/>
  <text x="735" y="601" text-anchor="middle" font-size="9">SlimPajama, OmniCorpus, VALID, E-MM1, TTS</text>
  
  <rect x="20" y="610" width="68" height="26" fill="#FFF3E0" stroke="#B0BEC5"/>
  <text x="54" y="627" text-anchor="middle" font-size="10" font-weight="bold">P4</text>
  <rect x="88" y="610" width="108" height="26" fill="#FFF" stroke="#B0BEC5"/>
  <text x="142" y="627" text-anchor="middle" font-size="9">32K+ context</text>
  <rect x="196" y="610" width="200" height="26" fill="#FFF" stroke="#B0BEC5"/>
  <text x="296" y="627" text-anchor="middle" font-size="9">Long video/audio/conv</text>
  <rect x="396" y="610" width="95" height="26" fill="#FFF" stroke="#B0BEC5"/>
  <text x="443" y="627" text-anchor="middle" font-size="9">50K+20K+30K</text>
  <rect x="491" y="610" width="489" height="26" fill="#FFF" stroke="#B0BEC5"/>
  <text x="735" y="627" text-anchor="middle" font-size="9">LongVideoBench, FineVideo, WenetSpeech</text>
  
  <rect x="20" y="636" width="68" height="26" fill="#FCE4EC" stroke="#B0BEC5"/>
  <text x="54" y="653" text-anchor="middle" font-size="10" font-weight="bold">P5</text>
  <rect x="88" y="636" width="108" height="26" fill="#FFF" stroke="#B0BEC5"/>
  <text x="142" y="653" text-anchor="middle" font-size="9">Instruction</text>
  <rect x="196" y="636" width="200" height="26" fill="#FFF" stroke="#B0BEC5"/>
  <text x="296" y="653" text-anchor="middle" font-size="9">Multimodal instruct, barge-in</text>
  <rect x="396" y="636" width="95" height="26" fill="#FFF" stroke="#B0BEC5"/>
  <text x="443" y="653" text-anchor="middle" font-size="9">500K</text>
  <rect x="491" y="636" width="489" height="26" fill="#FFF" stroke="#B0BEC5"/>
  <text x="735" y="653" text-anchor="middle" font-size="9">ShareGPT4V, VideoChat2</text>
  
  <rect x="20" y="662" width="68" height="26" fill="#FFEBEE" stroke="#B0BEC5"/>
  <text x="54" y="679" text-anchor="middle" font-size="10" font-weight="bold">P6</text>
  <rect x="88" y="662" width="108" height="26" fill="#FFF" stroke="#B0BEC5"/>
  <text x="142" y="679" text-anchor="middle" font-size="9">Preference + TTS</text>
  <rect x="196" y="662" width="200" height="26" fill="#FFF" stroke="#B0BEC5"/>
  <text x="296" y="679" text-anchor="middle" font-size="9">Preference pairs, TTS 4-stage</text>
  <rect x="396" y="662" width="95" height="26" fill="#FFF" stroke="#B0BEC5"/>
  <text x="443" y="679" text-anchor="middle" font-size="9">50K+4-stage</text>
  <rect x="491" y="662" width="489" height="26" fill="#FFF" stroke="#B0BEC5"/>
  <text x="735" y="679" text-anchor="middle" font-size="9">GRPO, RLAIF-V, OmniDPO, seed-tts-eval</text>
  
  <!-- Breakthrough: key only, text inside bounds -->
  <rect x="20" y="698" width="475" height="58" rx="6" fill="#E3F2FD" stroke="#1976D2"/>
  <text x="257" y="718" text-anchor="middle" font-size="11" font-weight="bold" fill="#0D47A1">Sparse</text>
  <text x="30" y="738" text-anchor="start" font-size="9" fill="#333">Dense LLM → 1/4 InfLLM-V2 + 3/4 Lightning → HALO distill (KL+LM) → long-context FT.</text>
  
  <rect x="505" y="698" width="475" height="58" rx="6" fill="#FFF3E0" stroke="#E65100"/>
  <text x="742" y="718" text-anchor="middle" font-size="11" font-weight="bold" fill="#BF360C">Visual compress</text>
  <text x="515" y="738" text-anchor="start" font-size="9" fill="#333">Key-position dense attn guides sparse attn for high-res. Resampler: 2D→3D→video FT.</text>
</svg>
